<svg xmlns="http://www.w3.org/2000/svg" width="980" height="520" viewBox="0 0 980 520">
  <rect width="100%" height="100%" fill="white" />

  <text x="490" y="28" text-anchor="middle" font-size="18" font-family="Arial" font-weight="bold">
    Порівняння динаміки R<tspan baseline-shift="sub" font-size="10">total</tspan> для репрезентативних сценаріїв
  </text>

  
      <line x1="75" y1="455" x2="745" y2="455" stroke="#e5e5e5" stroke-width="1" />
      <text x="60" y="460" text-anchor="end" font-size="13" font-family="Arial">0.0</text>
    

      <line x1="75" y1="375" x2="745" y2="375" stroke="#e5e5e5" stroke-width="1" />
      <text x="60" y="380" text-anchor="end" font-size="13" font-family="Arial">0.2</text>
    

      <line x1="75" y1="295" x2="745" y2="295" stroke="#e5e5e5" stroke-width="1" />
      <text x="60" y="300" text-anchor="end" font-size="13" font-family="Arial">0.4</text>
    

      <line x1="75" y1="215" x2="745" y2="215" stroke="#e5e5e5" stroke-width="1" />
      <text x="60" y="220" text-anchor="end" font-size="13" font-family="Arial">0.6</text>
    

      <line x1="75" y1="135" x2="745" y2="135" stroke="#e5e5e5" stroke-width="1" />
      <text x="60" y="140" text-anchor="end" font-size="13" font-family="Arial">0.8</text>
    

      <line x1="75" y1="55" x2="745" y2="55" stroke="#e5e5e5" stroke-width="1" />
      <text x="60" y="60" text-anchor="end" font-size="13" font-family="Arial">1.0</text>
    
  
      <line x1="75" y1="335" x2="745" y2="335" stroke="#bdbdbd" stroke-width="1" stroke-dasharray="4 4" />
      <text x="83" y="329" font-size="12" font-family="Arial" fill="#666">R = 0.30</text>
    

      <line x1="75" y1="215" x2="745" y2="215" stroke="#bdbdbd" stroke-width="1" stroke-dasharray="4 4" />
      <text x="83" y="209" font-size="12" font-family="Arial" fill="#666">R = 0.60</text>
    

      <line x1="75" y1="135" x2="745" y2="135" stroke="#bdbdbd" stroke-width="1" stroke-dasharray="4 4" />
      <text x="83" y="129" font-size="12" font-family="Arial" fill="#666">R = 0.80</text>
    

  <line x1="75" y1="455" x2="745" y2="455" stroke="#333" stroke-width="1.2" />
  
      <line x1="75" y1="455" x2="75" y2="461" stroke="#333" stroke-width="1" />
      <text x="75" y="479" text-anchor="middle" font-size="13" font-family="Arial">0</text>
    

      <line x1="242.5" y1="455" x2="242.5" y2="461" stroke="#333" stroke-width="1" />
      <text x="242.5" y="479" text-anchor="middle" font-size="13" font-family="Arial">5</text>
    

      <line x1="410" y1="455" x2="410" y2="461" stroke="#333" stroke-width="1" />
      <text x="410" y="479" text-anchor="middle" font-size="13" font-family="Arial">10</text>
    

      <line x1="577.5" y1="455" x2="577.5" y2="461" stroke="#333" stroke-width="1" />
      <text x="577.5" y="479" text-anchor="middle" font-size="13" font-family="Arial">15</text>
    

      <line x1="745" y1="455" x2="745" y2="461" stroke="#333" stroke-width="1" />
      <text x="745" y="479" text-anchor="middle" font-size="13" font-family="Arial">20</text>
    
  <line x1="75" y1="55" x2="75" y2="455" stroke="#333" stroke-width="1.2" />

  <text x="410" y="500" text-anchor="middle" font-size="15" font-family="Arial">
    Час t, хв
  </text>

  <text x="22" y="260" transform="rotate(-90 22 260)" text-anchor="middle" font-size="15" font-family="Arial">
    Підсумковий ризик Rtotal
  </text>

  <polyline data-scenario-number="1" points="75,342.6 108.5,333.4 142,325 175.5,317.4 209,310.6 242.5,304.2 276,298.6 309.5,294.2 343,289.4 376.5,285.4 410,281.8 443.50000000000006,278.6 477,275.4 510.5,272.6 544,269.79999999999995 577.5,267.4 611,265.4 644.5,263.4 678,261.4 711.5,260.20000000000005 745,259" fill="none" stroke="#111111" stroke-width="2.6" />
<polyline data-scenario-number="4" points="75,271.4 108.5,261.8 142,252.2 175.5,244.6 209,236.6 242.5,229.8 276,223.8 309.5,217.8 343,212.6 376.5,207.4 410,202.6 443.50000000000006,198.2 477,194.2 510.5,189.8 544,186.2 577.5,177.40000000000003 611,175 644.5,172.60000000000002 678,170.60000000000002 711.5,167 745,167" fill="none" stroke="#1f77b4" stroke-width="2.6" />
<polyline data-scenario-number="6" points="75,400.2 108.5,393.8 142,389 175.5,384.6 209,380.6 242.5,377.4 276,374.6 309.5,372.2 343,370.6 376.5,369 410,367.8 443.50000000000006,366.6 477,365.8 510.5,365 544,364.6 577.5,363.8 611,363.4 644.5,363.4 678,363 711.5,363 745,363" fill="none" stroke="#2ca02c" stroke-width="2.6" />
<polyline data-scenario-number="8" points="75,295.4 108.5,281.8 142,269 175.5,257.4 209,247 242.5,237.39999999999998 276,228.20000000000002 309.5,219.8 343,200.2 376.5,194.2 410,188.59999999999997 443.50000000000006,183.39999999999998 477,178.20000000000005 510.5,173.8 544,169.8 577.5,165.40000000000003 611,161.8 644.5,158.60000000000002 678,155.8 711.5,153.39999999999998 745,151" fill="none" stroke="#d62728" stroke-width="2.6" />
<polyline data-scenario-number="13" points="75,269.4 108.5,249.4 142,230.59999999999997 175.5,213.4 209,198.2 242.5,184.2 276,171.40000000000003 309.5,159.8 343,149.8 376.5,129.40000000000003 410,105.80000000000001 443.50000000000006,101 477,96.59999999999997 510.5,93.39999999999998 544,90.59999999999997 577.5,88.19999999999999 611,86.19999999999999 644.5,85.79999999999995 678,85.79999999999995 711.5,86.19999999999999 745,87" fill="none" stroke="#9467bd" stroke-width="2.6" />
  
      <line x1="775" y1="90" x2="820" y2="90" stroke="#111111" stroke-width="2.6" />
      <text x="830" y="95" font-size="13" font-family="Arial">
        Сц. 1: R=0.49
      </text>
    

      <line x1="775" y1="124" x2="820" y2="124" stroke="#1f77b4" stroke-width="2.6" />
      <text x="830" y="129" font-size="13" font-family="Arial">
        Сц. 4: R=0.72
      </text>
    

      <line x1="775" y1="158" x2="820" y2="158" stroke="#2ca02c" stroke-width="2.6" />
      <text x="830" y="163" font-size="13" font-family="Arial">
        Сц. 6: R=0.23
      </text>
    

      <line x1="775" y1="192" x2="820" y2="192" stroke="#d62728" stroke-width="2.6" />
      <text x="830" y="197" font-size="13" font-family="Arial">
        Сц. 8: R=0.76
      </text>
    

      <line x1="775" y1="226" x2="820" y2="226" stroke="#9467bd" stroke-width="2.6" />
      <text x="830" y="231" font-size="13" font-family="Arial">
        Сц. 13: R=0.92
      </text>
    
</svg>