<svg xmlns="http://www.w3.org/2000/svg" width="1080" height="420" viewBox="0 0 1080 420" data-plot-right="830">
  <rect width="100%" height="100%" fill="white" />

  
      <line x1="75" y1="355" x2="830" y2="355" stroke="#e5e5e5" stroke-width="1" />
      <text x="60" y="360" text-anchor="end" font-size="13" font-family="Arial">0.0</text>
    

      <line x1="75" y1="291" x2="830" y2="291" stroke="#e5e5e5" stroke-width="1" />
      <text x="60" y="296" text-anchor="end" font-size="13" font-family="Arial">0.2</text>
    

      <line x1="75" y1="227" x2="830" y2="227" stroke="#e5e5e5" stroke-width="1" />
      <text x="60" y="232" text-anchor="end" font-size="13" font-family="Arial">0.4</text>
    

      <line x1="75" y1="163" x2="830" y2="163" stroke="#e5e5e5" stroke-width="1" />
      <text x="60" y="168" text-anchor="end" font-size="13" font-family="Arial">0.6</text>
    

      <line x1="75" y1="99" x2="830" y2="99" stroke="#e5e5e5" stroke-width="1" />
      <text x="60" y="104" text-anchor="end" font-size="13" font-family="Arial">0.8</text>
    

      <line x1="75" y1="35" x2="830" y2="35" stroke="#e5e5e5" stroke-width="1" />
      <text x="60" y="40" text-anchor="end" font-size="13" font-family="Arial">1.0</text>
    

  <line x1="75" y1="355" x2="830" y2="355" stroke="#333" stroke-width="1.2" />
  
      <line x1="75" y1="355" x2="75" y2="361" stroke="#333" stroke-width="1" />
      <text x="75" y="379" text-anchor="middle" font-size="13" font-family="Arial">0</text>
    

      <line x1="263.75" y1="355" x2="263.75" y2="361" stroke="#333" stroke-width="1" />
      <text x="263.75" y="379" text-anchor="middle" font-size="13" font-family="Arial">5</text>
    

      <line x1="452.5" y1="355" x2="452.5" y2="361" stroke="#333" stroke-width="1" />
      <text x="452.5" y="379" text-anchor="middle" font-size="13" font-family="Arial">10</text>
    

      <line x1="641.25" y1="355" x2="641.25" y2="361" stroke="#333" stroke-width="1" />
      <text x="641.25" y="379" text-anchor="middle" font-size="13" font-family="Arial">15</text>
    

      <line x1="830" y1="355" x2="830" y2="361" stroke="#333" stroke-width="1" />
      <text x="830" y="379" text-anchor="middle" font-size="13" font-family="Arial">20</text>
    
  <line x1="75" y1="35" x2="75" y2="355" stroke="#333" stroke-width="1.2" />

  <text x="452.5" y="400" text-anchor="middle" font-size="15" font-family="Arial">
    Час t, хв
  </text>

  <text x="22" y="210" transform="rotate(-90 22 210)" text-anchor="middle" font-size="15" font-family="Arial">
    Нормований рівень ризику
  </text>

  <line x1="75" y1="243" x2="830" y2="243" stroke="#bdbdbd" stroke-width="1" stroke-dasharray="4 4" />
  <text x="83" y="237" font-size="12" font-family="Arial" fill="#666">R = 0.35</text>

  <line x1="75" y1="147" x2="830" y2="147" stroke="#bdbdbd" stroke-width="1" stroke-dasharray="4 4" />
  <text x="83" y="141" font-size="12" font-family="Arial" fill="#666">R = 0.65</text>

  <polyline points="75,227.32 112.75,216.44 150.5,206.2 188.25,196.92000000000002 226,188.6 263.75,180.92 301.5,173.56 339.25,166.84 377,151.16 414.75,146.35999999999999 452.5,141.88 490.25000000000006,137.71999999999997 528,133.56 565.75,130.04000000000002 603.5,126.84 641.25,123.32 679,120.44 716.75,117.88 754.5,115.63999999999999 792.25,113.72 830,111.80000000000001" fill="none" stroke="black" stroke-width="2.6" />
  <circle cx="75" cy="227.32" r="3" fill="white" stroke="black" stroke-width="1.4" />
<circle cx="112.75" cy="216.44" r="3" fill="white" stroke="black" stroke-width="1.4" />
<circle cx="150.5" cy="206.2" r="3" fill="white" stroke="black" stroke-width="1.4" />
<circle cx="188.25" cy="196.92000000000002" r="3" fill="white" stroke="black" stroke-width="1.4" />
<circle cx="226" cy="188.6" r="3" fill="white" stroke="black" stroke-width="1.4" />
<circle cx="263.75" cy="180.92" r="3" fill="white" stroke="black" stroke-width="1.4" />
<circle cx="301.5" cy="173.56" r="3" fill="white" stroke="black" stroke-width="1.4" />
<circle cx="339.25" cy="166.84" r="3" fill="white" stroke="black" stroke-width="1.4" />
<circle cx="377" cy="151.16" r="3" fill="white" stroke="black" stroke-width="1.4" />
<circle cx="414.75" cy="146.35999999999999" r="3" fill="white" stroke="black" stroke-width="1.4" />
<circle cx="452.5" cy="141.88" r="3" fill="white" stroke="black" stroke-width="1.4" />
<circle cx="490.25000000000006" cy="137.71999999999997" r="3" fill="white" stroke="black" stroke-width="1.4" />
<circle cx="528" cy="133.56" r="3" fill="white" stroke="black" stroke-width="1.4" />
<circle cx="565.75" cy="130.04000000000002" r="3" fill="white" stroke="black" stroke-width="1.4" />
<circle cx="603.5" cy="126.84" r="3" fill="white" stroke="black" stroke-width="1.4" />
<circle cx="641.25" cy="123.32" r="3" fill="white" stroke="black" stroke-width="1.4" />
<circle cx="679" cy="120.44" r="3" fill="white" stroke="black" stroke-width="1.4" />
<circle cx="716.75" cy="117.88" r="3" fill="white" stroke="black" stroke-width="1.4" />
<circle cx="754.5" cy="115.63999999999999" r="3" fill="white" stroke="black" stroke-width="1.4" />
<circle cx="792.25" cy="113.72" r="3" fill="white" stroke="black" stroke-width="1.4" />
<circle cx="830" cy="111.80000000000001" r="3" fill="white" stroke="black" stroke-width="1.4" />

  <polyline points="75,249.07999999999998 112.75,237.56 150.5,227 188.25,217.08 226,208.44 263.75,200.12 301.5,192.44 339.25,185.07999999999998 377,178.67999999999998 414.75,172.60000000000002 452.5,166.84 490.25000000000006,161.72 528,156.6 565.75,151.8 603.5,147 641.25,140.27999999999997 679,132.60000000000002 716.75,130.04000000000002 754.5,124.28 792.25,120.12 830,118.19999999999999" fill="none" stroke="#666" stroke-width="2" stroke-dasharray="8 5" />
  <circle cx="75" cy="249.07999999999998" r="2.7" fill="white" stroke="#666" stroke-width="1.4" />
<circle cx="112.75" cy="237.56" r="2.7" fill="white" stroke="#666" stroke-width="1.4" />
<circle cx="150.5" cy="227" r="2.7" fill="white" stroke="#666" stroke-width="1.4" />
<circle cx="188.25" cy="217.08" r="2.7" fill="white" stroke="#666" stroke-width="1.4" />
<circle cx="226" cy="208.44" r="2.7" fill="white" stroke="#666" stroke-width="1.4" />
<circle cx="263.75" cy="200.12" r="2.7" fill="white" stroke="#666" stroke-width="1.4" />
<circle cx="301.5" cy="192.44" r="2.7" fill="white" stroke="#666" stroke-width="1.4" />
<circle cx="339.25" cy="185.07999999999998" r="2.7" fill="white" stroke="#666" stroke-width="1.4" />
<circle cx="377" cy="178.67999999999998" r="2.7" fill="white" stroke="#666" stroke-width="1.4" />
<circle cx="414.75" cy="172.60000000000002" r="2.7" fill="white" stroke="#666" stroke-width="1.4" />
<circle cx="452.5" cy="166.84" r="2.7" fill="white" stroke="#666" stroke-width="1.4" />
<circle cx="490.25000000000006" cy="161.72" r="2.7" fill="white" stroke="#666" stroke-width="1.4" />
<circle cx="528" cy="156.6" r="2.7" fill="white" stroke="#666" stroke-width="1.4" />
<circle cx="565.75" cy="151.8" r="2.7" fill="white" stroke="#666" stroke-width="1.4" />
<circle cx="603.5" cy="147" r="2.7" fill="white" stroke="#666" stroke-width="1.4" />
<circle cx="641.25" cy="140.27999999999997" r="2.7" fill="white" stroke="#666" stroke-width="1.4" />
<circle cx="679" cy="132.60000000000002" r="2.7" fill="white" stroke="#666" stroke-width="1.4" />
<circle cx="716.75" cy="130.04000000000002" r="2.7" fill="white" stroke="#666" stroke-width="1.4" />
<circle cx="754.5" cy="124.28" r="2.7" fill="white" stroke="#666" stroke-width="1.4" />
<circle cx="792.25" cy="120.12" r="2.7" fill="white" stroke="#666" stroke-width="1.4" />
<circle cx="830" cy="118.19999999999999" r="2.7" fill="white" stroke="#666" stroke-width="1.4" />

  <polyline points="75,214.2 112.75,214.2 150.5,214.2 188.25,214.2 226,214.2 263.75,214.2 301.5,214.2 339.25,214.2 377,214.2 414.75,214.2 452.5,214.2 490.25000000000006,214.2 528,214.2 565.75,214.2 603.5,214.2 641.25,214.2 679,214.2 716.75,214.2 754.5,214.2 792.25,214.2 830,214.2" fill="none" stroke="#999" stroke-width="1.8" stroke-dasharray="3 5" />

  <g data-legend="risk-series">
  <line x1="865" y1="55" x2="920" y2="55" stroke="black" stroke-width="2.6" />
  <text x="932" y="60" font-size="14" font-family="Arial">
    - R<tspan baseline-shift="sub" font-size="10">total</tspan>
  </text>

  <line x1="865" y1="80" x2="920" y2="80" stroke="#666" stroke-width="2" stroke-dasharray="8 5" />
  <text x="932" y="85" font-size="14" font-family="Arial">
    - R<tspan baseline-shift="sub" font-size="10">geo</tspan>
  </text>

  <line x1="865" y1="105" x2="920" y2="105" stroke="#999" stroke-width="1.8" stroke-dasharray="3 5" />
  <text x="932" y="110" font-size="14" font-family="Arial">
    - R<tspan baseline-shift="sub" font-size="10">env</tspan>
  </text>
  </g>
</svg>