<svg xmlns="http://www.w3.org/2000/svg" width="1080" height="420" viewBox="0 0 1080 420" data-plot-right="830">
  <rect width="100%" height="100%" fill="white" />

  
      <line x1="75" y1="355" x2="830" y2="355" stroke="#e5e5e5" stroke-width="1" />
      <text x="60" y="360" text-anchor="end" font-size="13" font-family="Arial">0.0</text>
    

      <line x1="75" y1="291" x2="830" y2="291" stroke="#e5e5e5" stroke-width="1" />
      <text x="60" y="296" text-anchor="end" font-size="13" font-family="Arial">0.2</text>
    

      <line x1="75" y1="227" x2="830" y2="227" stroke="#e5e5e5" stroke-width="1" />
      <text x="60" y="232" text-anchor="end" font-size="13" font-family="Arial">0.4</text>
    

      <line x1="75" y1="163" x2="830" y2="163" stroke="#e5e5e5" stroke-width="1" />
      <text x="60" y="168" text-anchor="end" font-size="13" font-family="Arial">0.6</text>
    

      <line x1="75" y1="99" x2="830" y2="99" stroke="#e5e5e5" stroke-width="1" />
      <text x="60" y="104" text-anchor="end" font-size="13" font-family="Arial">0.8</text>
    

      <line x1="75" y1="35" x2="830" y2="35" stroke="#e5e5e5" stroke-width="1" />
      <text x="60" y="40" text-anchor="end" font-size="13" font-family="Arial">1.0</text>
    

  <line x1="75" y1="355" x2="830" y2="355" stroke="#333" stroke-width="1.2" />
  
      <line x1="75" y1="355" x2="75" y2="361" stroke="#333" stroke-width="1" />
      <text x="75" y="379" text-anchor="middle" font-size="13" font-family="Arial">0</text>
    

      <line x1="263.75" y1="355" x2="263.75" y2="361" stroke="#333" stroke-width="1" />
      <text x="263.75" y="379" text-anchor="middle" font-size="13" font-family="Arial">5</text>
    

      <line x1="452.5" y1="355" x2="452.5" y2="361" stroke="#333" stroke-width="1" />
      <text x="452.5" y="379" text-anchor="middle" font-size="13" font-family="Arial">10</text>
    

      <line x1="641.25" y1="355" x2="641.25" y2="361" stroke="#333" stroke-width="1" />
      <text x="641.25" y="379" text-anchor="middle" font-size="13" font-family="Arial">15</text>
    

      <line x1="830" y1="355" x2="830" y2="361" stroke="#333" stroke-width="1" />
      <text x="830" y="379" text-anchor="middle" font-size="13" font-family="Arial">20</text>
    
  <line x1="75" y1="35" x2="75" y2="355" stroke="#333" stroke-width="1.2" />

  <text x="452.5" y="400" text-anchor="middle" font-size="15" font-family="Arial">
    Час t, хв
  </text>

  <text x="22" y="210" transform="rotate(-90 22 210)" text-anchor="middle" font-size="15" font-family="Arial">
    Нормований рівень ризику
  </text>

  <line x1="75" y1="243" x2="830" y2="243" stroke="#bdbdbd" stroke-width="1" stroke-dasharray="4 4" />
  <text x="83" y="237" font-size="12" font-family="Arial" fill="#666">R = 0.35</text>

  <line x1="75" y1="147" x2="830" y2="147" stroke="#bdbdbd" stroke-width="1" stroke-dasharray="4 4" />
  <text x="83" y="141" font-size="12" font-family="Arial" fill="#666">R = 0.65</text>

  <polyline points="75,259 112.75,248.12 150.5,238.52 188.25,229.24 226,220.92000000000002 263.75,213.24 301.5,205.88 339.25,199.16 377,192.76 414.75,187 452.5,181.23999999999998 490.25000000000006,175.79999999999998 528,171 565.75,166.20000000000002 603.5,162.04000000000002 641.25,157.56 679,153.72 716.75,150.2 754.5,146.35999999999999 792.25,143.48 830,140.6" fill="none" stroke="black" stroke-width="2.6" />
  <circle cx="75" cy="259" r="3" fill="white" stroke="black" stroke-width="1.4" />
<circle cx="112.75" cy="248.12" r="3" fill="white" stroke="black" stroke-width="1.4" />
<circle cx="150.5" cy="238.52" r="3" fill="white" stroke="black" stroke-width="1.4" />
<circle cx="188.25" cy="229.24" r="3" fill="white" stroke="black" stroke-width="1.4" />
<circle cx="226" cy="220.92000000000002" r="3" fill="white" stroke="black" stroke-width="1.4" />
<circle cx="263.75" cy="213.24" r="3" fill="white" stroke="black" stroke-width="1.4" />
<circle cx="301.5" cy="205.88" r="3" fill="white" stroke="black" stroke-width="1.4" />
<circle cx="339.25" cy="199.16" r="3" fill="white" stroke="black" stroke-width="1.4" />
<circle cx="377" cy="192.76" r="3" fill="white" stroke="black" stroke-width="1.4" />
<circle cx="414.75" cy="187" r="3" fill="white" stroke="black" stroke-width="1.4" />
<circle cx="452.5" cy="181.23999999999998" r="3" fill="white" stroke="black" stroke-width="1.4" />
<circle cx="490.25000000000006" cy="175.79999999999998" r="3" fill="white" stroke="black" stroke-width="1.4" />
<circle cx="528" cy="171" r="3" fill="white" stroke="black" stroke-width="1.4" />
<circle cx="565.75" cy="166.20000000000002" r="3" fill="white" stroke="black" stroke-width="1.4" />
<circle cx="603.5" cy="162.04000000000002" r="3" fill="white" stroke="black" stroke-width="1.4" />
<circle cx="641.25" cy="157.56" r="3" fill="white" stroke="black" stroke-width="1.4" />
<circle cx="679" cy="153.72" r="3" fill="white" stroke="black" stroke-width="1.4" />
<circle cx="716.75" cy="150.2" r="3" fill="white" stroke="black" stroke-width="1.4" />
<circle cx="754.5" cy="146.35999999999999" r="3" fill="white" stroke="black" stroke-width="1.4" />
<circle cx="792.25" cy="143.48" r="3" fill="white" stroke="black" stroke-width="1.4" />
<circle cx="830" cy="140.6" r="3" fill="white" stroke="black" stroke-width="1.4" />

  <polyline points="75,233.07999999999998 112.75,223.16 150.5,213.88 188.25,205.23999999999998 226,197.56 263.75,190.51999999999998 301.5,183.79999999999998 339.25,177.39999999999998 377,171.96 414.75,166.52 452.5,161.08 490.25000000000006,156.28 528,151.8 565.75,147 603.5,142.51999999999998 641.25,137.71999999999997 679,132.92000000000002 716.75,128.12 754.5,120.44 792.25,114.68 830,111.80000000000001" fill="none" stroke="#666" stroke-width="2" stroke-dasharray="8 5" />
  <circle cx="75" cy="233.07999999999998" r="2.7" fill="white" stroke="#666" stroke-width="1.4" />
<circle cx="112.75" cy="223.16" r="2.7" fill="white" stroke="#666" stroke-width="1.4" />
<circle cx="150.5" cy="213.88" r="2.7" fill="white" stroke="#666" stroke-width="1.4" />
<circle cx="188.25" cy="205.23999999999998" r="2.7" fill="white" stroke="#666" stroke-width="1.4" />
<circle cx="226" cy="197.56" r="2.7" fill="white" stroke="#666" stroke-width="1.4" />
<circle cx="263.75" cy="190.51999999999998" r="2.7" fill="white" stroke="#666" stroke-width="1.4" />
<circle cx="301.5" cy="183.79999999999998" r="2.7" fill="white" stroke="#666" stroke-width="1.4" />
<circle cx="339.25" cy="177.39999999999998" r="2.7" fill="white" stroke="#666" stroke-width="1.4" />
<circle cx="377" cy="171.96" r="2.7" fill="white" stroke="#666" stroke-width="1.4" />
<circle cx="414.75" cy="166.52" r="2.7" fill="white" stroke="#666" stroke-width="1.4" />
<circle cx="452.5" cy="161.08" r="2.7" fill="white" stroke="#666" stroke-width="1.4" />
<circle cx="490.25000000000006" cy="156.28" r="2.7" fill="white" stroke="#666" stroke-width="1.4" />
<circle cx="528" cy="151.8" r="2.7" fill="white" stroke="#666" stroke-width="1.4" />
<circle cx="565.75" cy="147" r="2.7" fill="white" stroke="#666" stroke-width="1.4" />
<circle cx="603.5" cy="142.51999999999998" r="2.7" fill="white" stroke="#666" stroke-width="1.4" />
<circle cx="641.25" cy="137.71999999999997" r="2.7" fill="white" stroke="#666" stroke-width="1.4" />
<circle cx="679" cy="132.92000000000002" r="2.7" fill="white" stroke="#666" stroke-width="1.4" />
<circle cx="716.75" cy="128.12" r="2.7" fill="white" stroke="#666" stroke-width="1.4" />
<circle cx="754.5" cy="120.44" r="2.7" fill="white" stroke="#666" stroke-width="1.4" />
<circle cx="792.25" cy="114.68" r="2.7" fill="white" stroke="#666" stroke-width="1.4" />
<circle cx="830" cy="111.80000000000001" r="2.7" fill="white" stroke="#666" stroke-width="1.4" />

  <polyline points="75,304.44 112.75,302.84 150.5,301.56 188.25,299.96000000000004 226,298.68 263.75,297.08 301.5,295.48 339.25,294.2 377,292.6 414.75,291.32 452.5,289.72 490.25000000000006,288.12 528,286.84000000000003 565.75,285.24 603.5,283.96 641.25,282.36 679,280.76 716.75,279.48 754.5,277.88 792.25,276.6 830,275" fill="none" stroke="#999" stroke-width="1.8" stroke-dasharray="3 5" />

  <g data-legend="risk-series">
  <line x1="865" y1="55" x2="920" y2="55" stroke="black" stroke-width="2.6" />
  <text x="932" y="60" font-size="14" font-family="Arial">
    - R<tspan baseline-shift="sub" font-size="10">total</tspan>
  </text>

  <line x1="865" y1="80" x2="920" y2="80" stroke="#666" stroke-width="2" stroke-dasharray="8 5" />
  <text x="932" y="85" font-size="14" font-family="Arial">
    - R<tspan baseline-shift="sub" font-size="10">geo</tspan>
  </text>

  <line x1="865" y1="105" x2="920" y2="105" stroke="#999" stroke-width="1.8" stroke-dasharray="3 5" />
  <text x="932" y="110" font-size="14" font-family="Arial">
    - R<tspan baseline-shift="sub" font-size="10">env</tspan>
  </text>
  </g>
</svg>