<svg xmlns="http://www.w3.org/2000/svg" width="1080" height="420" viewBox="0 0 1080 420" data-plot-right="830">
  <rect width="100%" height="100%" fill="white" />

  
      <line x1="75" y1="355" x2="830" y2="355" stroke="#e5e5e5" stroke-width="1" />
      <text x="60" y="360" text-anchor="end" font-size="13" font-family="Arial">0.0</text>
    

      <line x1="75" y1="291" x2="830" y2="291" stroke="#e5e5e5" stroke-width="1" />
      <text x="60" y="296" text-anchor="end" font-size="13" font-family="Arial">0.2</text>
    

      <line x1="75" y1="227" x2="830" y2="227" stroke="#e5e5e5" stroke-width="1" />
      <text x="60" y="232" text-anchor="end" font-size="13" font-family="Arial">0.4</text>
    

      <line x1="75" y1="163" x2="830" y2="163" stroke="#e5e5e5" stroke-width="1" />
      <text x="60" y="168" text-anchor="end" font-size="13" font-family="Arial">0.6</text>
    

      <line x1="75" y1="99" x2="830" y2="99" stroke="#e5e5e5" stroke-width="1" />
      <text x="60" y="104" text-anchor="end" font-size="13" font-family="Arial">0.8</text>
    

      <line x1="75" y1="35" x2="830" y2="35" stroke="#e5e5e5" stroke-width="1" />
      <text x="60" y="40" text-anchor="end" font-size="13" font-family="Arial">1.0</text>
    

  <line x1="75" y1="355" x2="830" y2="355" stroke="#333" stroke-width="1.2" />
  
      <line x1="75" y1="355" x2="75" y2="361" stroke="#333" stroke-width="1" />
      <text x="75" y="379" text-anchor="middle" font-size="13" font-family="Arial">0</text>
    

      <line x1="263.75" y1="355" x2="263.75" y2="361" stroke="#333" stroke-width="1" />
      <text x="263.75" y="379" text-anchor="middle" font-size="13" font-family="Arial">5</text>
    

      <line x1="452.5" y1="355" x2="452.5" y2="361" stroke="#333" stroke-width="1" />
      <text x="452.5" y="379" text-anchor="middle" font-size="13" font-family="Arial">10</text>
    

      <line x1="641.25" y1="355" x2="641.25" y2="361" stroke="#333" stroke-width="1" />
      <text x="641.25" y="379" text-anchor="middle" font-size="13" font-family="Arial">15</text>
    

      <line x1="830" y1="355" x2="830" y2="361" stroke="#333" stroke-width="1" />
      <text x="830" y="379" text-anchor="middle" font-size="13" font-family="Arial">20</text>
    
  <line x1="75" y1="35" x2="75" y2="355" stroke="#333" stroke-width="1.2" />

  <text x="452.5" y="400" text-anchor="middle" font-size="15" font-family="Arial">
    Час t, хв
  </text>

  <text x="22" y="210" transform="rotate(-90 22 210)" text-anchor="middle" font-size="15" font-family="Arial">
    Нормований рівень ризику
  </text>

  <line x1="75" y1="243" x2="830" y2="243" stroke="#bdbdbd" stroke-width="1" stroke-dasharray="4 4" />
  <text x="83" y="237" font-size="12" font-family="Arial" fill="#666">R = 0.35</text>

  <line x1="75" y1="147" x2="830" y2="147" stroke="#bdbdbd" stroke-width="1" stroke-dasharray="4 4" />
  <text x="83" y="141" font-size="12" font-family="Arial" fill="#666">R = 0.65</text>

  <polyline points="75,264.76 112.75,253.24 150.5,242.68 188.25,233.07999999999998 226,224.12 263.75,215.8 301.5,207.79999999999998 339.25,200.44 377,193.72 414.75,187.32 452.5,181.23999999999998 490.25000000000006,175.48 528,170.04000000000002 565.75,164.92000000000002 603.5,160.12 641.25,155.64 679,151.48 716.75,144.76 754.5,141.88 792.25,139.64 830,137.39999999999998" fill="none" stroke="black" stroke-width="2.6" />
  <circle cx="75" cy="264.76" r="3" fill="white" stroke="black" stroke-width="1.4" />
<circle cx="112.75" cy="253.24" r="3" fill="white" stroke="black" stroke-width="1.4" />
<circle cx="150.5" cy="242.68" r="3" fill="white" stroke="black" stroke-width="1.4" />
<circle cx="188.25" cy="233.07999999999998" r="3" fill="white" stroke="black" stroke-width="1.4" />
<circle cx="226" cy="224.12" r="3" fill="white" stroke="black" stroke-width="1.4" />
<circle cx="263.75" cy="215.8" r="3" fill="white" stroke="black" stroke-width="1.4" />
<circle cx="301.5" cy="207.79999999999998" r="3" fill="white" stroke="black" stroke-width="1.4" />
<circle cx="339.25" cy="200.44" r="3" fill="white" stroke="black" stroke-width="1.4" />
<circle cx="377" cy="193.72" r="3" fill="white" stroke="black" stroke-width="1.4" />
<circle cx="414.75" cy="187.32" r="3" fill="white" stroke="black" stroke-width="1.4" />
<circle cx="452.5" cy="181.23999999999998" r="3" fill="white" stroke="black" stroke-width="1.4" />
<circle cx="490.25000000000006" cy="175.48" r="3" fill="white" stroke="black" stroke-width="1.4" />
<circle cx="528" cy="170.04000000000002" r="3" fill="white" stroke="black" stroke-width="1.4" />
<circle cx="565.75" cy="164.92000000000002" r="3" fill="white" stroke="black" stroke-width="1.4" />
<circle cx="603.5" cy="160.12" r="3" fill="white" stroke="black" stroke-width="1.4" />
<circle cx="641.25" cy="155.64" r="3" fill="white" stroke="black" stroke-width="1.4" />
<circle cx="679" cy="151.48" r="3" fill="white" stroke="black" stroke-width="1.4" />
<circle cx="716.75" cy="144.76" r="3" fill="white" stroke="black" stroke-width="1.4" />
<circle cx="754.5" cy="141.88" r="3" fill="white" stroke="black" stroke-width="1.4" />
<circle cx="792.25" cy="139.64" r="3" fill="white" stroke="black" stroke-width="1.4" />
<circle cx="830" cy="137.39999999999998" r="3" fill="white" stroke="black" stroke-width="1.4" />

  <polyline points="75,253.56 112.75,245.24 150.5,237.88 188.25,231.48 226,225.39999999999998 263.75,219.96 301.5,215.48 339.25,211 377,207.16 414.75,203.64000000000001 452.5,200.44 490.25000000000006,197.24 528,194.36 565.75,191.48 603.5,188.92 641.25,186.04 679,183.16 716.75,176.76 754.5,172.60000000000002 792.25,170.68 830,169.4" fill="none" stroke="#666" stroke-width="2" stroke-dasharray="8 5" />
  <circle cx="75" cy="253.56" r="2.7" fill="white" stroke="#666" stroke-width="1.4" />
<circle cx="112.75" cy="245.24" r="2.7" fill="white" stroke="#666" stroke-width="1.4" />
<circle cx="150.5" cy="237.88" r="2.7" fill="white" stroke="#666" stroke-width="1.4" />
<circle cx="188.25" cy="231.48" r="2.7" fill="white" stroke="#666" stroke-width="1.4" />
<circle cx="226" cy="225.39999999999998" r="2.7" fill="white" stroke="#666" stroke-width="1.4" />
<circle cx="263.75" cy="219.96" r="2.7" fill="white" stroke="#666" stroke-width="1.4" />
<circle cx="301.5" cy="215.48" r="2.7" fill="white" stroke="#666" stroke-width="1.4" />
<circle cx="339.25" cy="211" r="2.7" fill="white" stroke="#666" stroke-width="1.4" />
<circle cx="377" cy="207.16" r="2.7" fill="white" stroke="#666" stroke-width="1.4" />
<circle cx="414.75" cy="203.64000000000001" r="2.7" fill="white" stroke="#666" stroke-width="1.4" />
<circle cx="452.5" cy="200.44" r="2.7" fill="white" stroke="#666" stroke-width="1.4" />
<circle cx="490.25000000000006" cy="197.24" r="2.7" fill="white" stroke="#666" stroke-width="1.4" />
<circle cx="528" cy="194.36" r="2.7" fill="white" stroke="#666" stroke-width="1.4" />
<circle cx="565.75" cy="191.48" r="2.7" fill="white" stroke="#666" stroke-width="1.4" />
<circle cx="603.5" cy="188.92" r="2.7" fill="white" stroke="#666" stroke-width="1.4" />
<circle cx="641.25" cy="186.04" r="2.7" fill="white" stroke="#666" stroke-width="1.4" />
<circle cx="679" cy="183.16" r="2.7" fill="white" stroke="#666" stroke-width="1.4" />
<circle cx="716.75" cy="176.76" r="2.7" fill="white" stroke="#666" stroke-width="1.4" />
<circle cx="754.5" cy="172.60000000000002" r="2.7" fill="white" stroke="#666" stroke-width="1.4" />
<circle cx="792.25" cy="170.68" r="2.7" fill="white" stroke="#666" stroke-width="1.4" />
<circle cx="830" cy="169.4" r="2.7" fill="white" stroke="#666" stroke-width="1.4" />

  <polyline points="75,304.44 112.75,303.8 150.5,303.15999999999997 188.25,302.52 226,301.88 263.75,300.92 301.5,300.28 339.25,299.64 377,299 414.75,298.36 452.5,297.72 490.25000000000006,297.08 528,296.44 565.75,295.8 603.5,295.15999999999997 641.25,294.2 679,293.56 716.75,292.92 754.5,292.28 792.25,291.64 830,291" fill="none" stroke="#999" stroke-width="1.8" stroke-dasharray="3 5" />

  <g data-legend="risk-series">
  <line x1="865" y1="55" x2="920" y2="55" stroke="black" stroke-width="2.6" />
  <text x="932" y="60" font-size="14" font-family="Arial">
    - R<tspan baseline-shift="sub" font-size="10">total</tspan>
  </text>

  <line x1="865" y1="80" x2="920" y2="80" stroke="#666" stroke-width="2" stroke-dasharray="8 5" />
  <text x="932" y="85" font-size="14" font-family="Arial">
    - R<tspan baseline-shift="sub" font-size="10">geo</tspan>
  </text>

  <line x1="865" y1="105" x2="920" y2="105" stroke="#999" stroke-width="1.8" stroke-dasharray="3 5" />
  <text x="932" y="110" font-size="14" font-family="Arial">
    - R<tspan baseline-shift="sub" font-size="10">env</tspan>
  </text>
  </g>
</svg>