<svg xmlns="http://www.w3.org/2000/svg" width="1080" height="420" viewBox="0 0 1080 420" data-plot-right="830">
  <rect width="100%" height="100%" fill="white" />

  
      <line x1="75" y1="355" x2="830" y2="355" stroke="#e5e5e5" stroke-width="1" />
      <text x="60" y="360" text-anchor="end" font-size="13" font-family="Arial">0.0</text>
    

      <line x1="75" y1="291" x2="830" y2="291" stroke="#e5e5e5" stroke-width="1" />
      <text x="60" y="296" text-anchor="end" font-size="13" font-family="Arial">0.2</text>
    

      <line x1="75" y1="227" x2="830" y2="227" stroke="#e5e5e5" stroke-width="1" />
      <text x="60" y="232" text-anchor="end" font-size="13" font-family="Arial">0.4</text>
    

      <line x1="75" y1="163" x2="830" y2="163" stroke="#e5e5e5" stroke-width="1" />
      <text x="60" y="168" text-anchor="end" font-size="13" font-family="Arial">0.6</text>
    

      <line x1="75" y1="99" x2="830" y2="99" stroke="#e5e5e5" stroke-width="1" />
      <text x="60" y="104" text-anchor="end" font-size="13" font-family="Arial">0.8</text>
    

      <line x1="75" y1="35" x2="830" y2="35" stroke="#e5e5e5" stroke-width="1" />
      <text x="60" y="40" text-anchor="end" font-size="13" font-family="Arial">1.0</text>
    

  <line x1="75" y1="355" x2="830" y2="355" stroke="#333" stroke-width="1.2" />
  
      <line x1="75" y1="355" x2="75" y2="361" stroke="#333" stroke-width="1" />
      <text x="75" y="379" text-anchor="middle" font-size="13" font-family="Arial">0</text>
    

      <line x1="263.75" y1="355" x2="263.75" y2="361" stroke="#333" stroke-width="1" />
      <text x="263.75" y="379" text-anchor="middle" font-size="13" font-family="Arial">5</text>
    

      <line x1="452.5" y1="355" x2="452.5" y2="361" stroke="#333" stroke-width="1" />
      <text x="452.5" y="379" text-anchor="middle" font-size="13" font-family="Arial">10</text>
    

      <line x1="641.25" y1="355" x2="641.25" y2="361" stroke="#333" stroke-width="1" />
      <text x="641.25" y="379" text-anchor="middle" font-size="13" font-family="Arial">15</text>
    

      <line x1="830" y1="355" x2="830" y2="361" stroke="#333" stroke-width="1" />
      <text x="830" y="379" text-anchor="middle" font-size="13" font-family="Arial">20</text>
    
  <line x1="75" y1="35" x2="75" y2="355" stroke="#333" stroke-width="1.2" />

  <text x="452.5" y="400" text-anchor="middle" font-size="15" font-family="Arial">
    Час t, хв
  </text>

  <text x="22" y="210" transform="rotate(-90 22 210)" text-anchor="middle" font-size="15" font-family="Arial">
    Нормований рівень ризику
  </text>

  <line x1="75" y1="243" x2="830" y2="243" stroke="#bdbdbd" stroke-width="1" stroke-dasharray="4 4" />
  <text x="83" y="237" font-size="12" font-family="Arial" fill="#666">R = 0.35</text>

  <line x1="75" y1="147" x2="830" y2="147" stroke="#bdbdbd" stroke-width="1" stroke-dasharray="4 4" />
  <text x="83" y="141" font-size="12" font-family="Arial" fill="#666">R = 0.65</text>

  <polyline points="75,236.28 112.75,222.20000000000002 150.5,209.4 188.25,197.24 226,186.68 263.75,176.44 301.5,167.48000000000002 339.25,158.52 377,140.92 414.75,134.20000000000002 452.5,128.12 490.25000000000006,122.68 528,117.24000000000001 565.75,112.44 603.5,108.28 641.25,103.79999999999998 679,99.95999999999998 716.75,96.75999999999999 754.5,93.88 792.25,91.63999999999999 830,89.40000000000003" fill="none" stroke="black" stroke-width="2.6" />
  <circle cx="75" cy="236.28" r="3" fill="white" stroke="black" stroke-width="1.4" />
<circle cx="112.75" cy="222.20000000000002" r="3" fill="white" stroke="black" stroke-width="1.4" />
<circle cx="150.5" cy="209.4" r="3" fill="white" stroke="black" stroke-width="1.4" />
<circle cx="188.25" cy="197.24" r="3" fill="white" stroke="black" stroke-width="1.4" />
<circle cx="226" cy="186.68" r="3" fill="white" stroke="black" stroke-width="1.4" />
<circle cx="263.75" cy="176.44" r="3" fill="white" stroke="black" stroke-width="1.4" />
<circle cx="301.5" cy="167.48000000000002" r="3" fill="white" stroke="black" stroke-width="1.4" />
<circle cx="339.25" cy="158.52" r="3" fill="white" stroke="black" stroke-width="1.4" />
<circle cx="377" cy="140.92" r="3" fill="white" stroke="black" stroke-width="1.4" />
<circle cx="414.75" cy="134.20000000000002" r="3" fill="white" stroke="black" stroke-width="1.4" />
<circle cx="452.5" cy="128.12" r="3" fill="white" stroke="black" stroke-width="1.4" />
<circle cx="490.25000000000006" cy="122.68" r="3" fill="white" stroke="black" stroke-width="1.4" />
<circle cx="528" cy="117.24000000000001" r="3" fill="white" stroke="black" stroke-width="1.4" />
<circle cx="565.75" cy="112.44" r="3" fill="white" stroke="black" stroke-width="1.4" />
<circle cx="603.5" cy="108.28" r="3" fill="white" stroke="black" stroke-width="1.4" />
<circle cx="641.25" cy="103.79999999999998" r="3" fill="white" stroke="black" stroke-width="1.4" />
<circle cx="679" cy="99.95999999999998" r="3" fill="white" stroke="black" stroke-width="1.4" />
<circle cx="716.75" cy="96.75999999999999" r="3" fill="white" stroke="black" stroke-width="1.4" />
<circle cx="754.5" cy="93.88" r="3" fill="white" stroke="black" stroke-width="1.4" />
<circle cx="792.25" cy="91.63999999999999" r="3" fill="white" stroke="black" stroke-width="1.4" />
<circle cx="830" cy="89.40000000000003" r="3" fill="white" stroke="black" stroke-width="1.4" />

  <polyline points="75,255.16 112.75,241.72 150.5,229.56 188.25,217.72 226,207.16 263.75,197.56 301.5,188.6 339.25,179.95999999999998 377,172.28000000000003 414.75,164.92000000000002 452.5,157.88 490.25000000000006,151.16 528,145.07999999999998 565.75,139 603.5,133.24 641.25,123.96000000000001 679,115.32 716.75,108.6 754.5,106.35999999999999 792.25,101.23999999999998 830,99" fill="none" stroke="#666" stroke-width="2" stroke-dasharray="8 5" />
  <circle cx="75" cy="255.16" r="2.7" fill="white" stroke="#666" stroke-width="1.4" />
<circle cx="112.75" cy="241.72" r="2.7" fill="white" stroke="#666" stroke-width="1.4" />
<circle cx="150.5" cy="229.56" r="2.7" fill="white" stroke="#666" stroke-width="1.4" />
<circle cx="188.25" cy="217.72" r="2.7" fill="white" stroke="#666" stroke-width="1.4" />
<circle cx="226" cy="207.16" r="2.7" fill="white" stroke="#666" stroke-width="1.4" />
<circle cx="263.75" cy="197.56" r="2.7" fill="white" stroke="#666" stroke-width="1.4" />
<circle cx="301.5" cy="188.6" r="2.7" fill="white" stroke="#666" stroke-width="1.4" />
<circle cx="339.25" cy="179.95999999999998" r="2.7" fill="white" stroke="#666" stroke-width="1.4" />
<circle cx="377" cy="172.28000000000003" r="2.7" fill="white" stroke="#666" stroke-width="1.4" />
<circle cx="414.75" cy="164.92000000000002" r="2.7" fill="white" stroke="#666" stroke-width="1.4" />
<circle cx="452.5" cy="157.88" r="2.7" fill="white" stroke="#666" stroke-width="1.4" />
<circle cx="490.25000000000006" cy="151.16" r="2.7" fill="white" stroke="#666" stroke-width="1.4" />
<circle cx="528" cy="145.07999999999998" r="2.7" fill="white" stroke="#666" stroke-width="1.4" />
<circle cx="565.75" cy="139" r="2.7" fill="white" stroke="#666" stroke-width="1.4" />
<circle cx="603.5" cy="133.24" r="2.7" fill="white" stroke="#666" stroke-width="1.4" />
<circle cx="641.25" cy="123.96000000000001" r="2.7" fill="white" stroke="#666" stroke-width="1.4" />
<circle cx="679" cy="115.32" r="2.7" fill="white" stroke="#666" stroke-width="1.4" />
<circle cx="716.75" cy="108.6" r="2.7" fill="white" stroke="#666" stroke-width="1.4" />
<circle cx="754.5" cy="106.35999999999999" r="2.7" fill="white" stroke="#666" stroke-width="1.4" />
<circle cx="792.25" cy="101.23999999999998" r="2.7" fill="white" stroke="#666" stroke-width="1.4" />
<circle cx="830" cy="99" r="2.7" fill="white" stroke="#666" stroke-width="1.4" />

  <polyline points="75,230.2 112.75,228.6 150.5,227.32 188.25,225.72 226,224.44 263.75,223.16 301.5,221.56 339.25,220.28 377,218.68 414.75,217.4 452.5,215.8 490.25000000000006,214.2 528,212.92 565.75,211.32 603.5,210.04 641.25,208.44 679,207.16 716.75,205.88 754.5,204.28 792.25,203 830,201.4" fill="none" stroke="#999" stroke-width="1.8" stroke-dasharray="3 5" />

  <g data-legend="risk-series">
  <line x1="865" y1="55" x2="920" y2="55" stroke="black" stroke-width="2.6" />
  <text x="932" y="60" font-size="14" font-family="Arial">
    - R<tspan baseline-shift="sub" font-size="10">total</tspan>
  </text>

  <line x1="865" y1="80" x2="920" y2="80" stroke="#666" stroke-width="2" stroke-dasharray="8 5" />
  <text x="932" y="85" font-size="14" font-family="Arial">
    - R<tspan baseline-shift="sub" font-size="10">geo</tspan>
  </text>

  <line x1="865" y1="105" x2="920" y2="105" stroke="#999" stroke-width="1.8" stroke-dasharray="3 5" />
  <text x="932" y="110" font-size="14" font-family="Arial">
    - R<tspan baseline-shift="sub" font-size="10">env</tspan>
  </text>
  </g>
</svg>