<svg xmlns="http://www.w3.org/2000/svg" width="1080" height="420" viewBox="0 0 1080 420" data-plot-right="830">
  <rect width="100%" height="100%" fill="white" />

  
      <line x1="75" y1="355" x2="830" y2="355" stroke="#e5e5e5" stroke-width="1" />
      <text x="60" y="360" text-anchor="end" font-size="13" font-family="Arial">0.0</text>
    

      <line x1="75" y1="291" x2="830" y2="291" stroke="#e5e5e5" stroke-width="1" />
      <text x="60" y="296" text-anchor="end" font-size="13" font-family="Arial">0.2</text>
    

      <line x1="75" y1="227" x2="830" y2="227" stroke="#e5e5e5" stroke-width="1" />
      <text x="60" y="232" text-anchor="end" font-size="13" font-family="Arial">0.4</text>
    

      <line x1="75" y1="163" x2="830" y2="163" stroke="#e5e5e5" stroke-width="1" />
      <text x="60" y="168" text-anchor="end" font-size="13" font-family="Arial">0.6</text>
    

      <line x1="75" y1="99" x2="830" y2="99" stroke="#e5e5e5" stroke-width="1" />
      <text x="60" y="104" text-anchor="end" font-size="13" font-family="Arial">0.8</text>
    

      <line x1="75" y1="35" x2="830" y2="35" stroke="#e5e5e5" stroke-width="1" />
      <text x="60" y="40" text-anchor="end" font-size="13" font-family="Arial">1.0</text>
    

  <line x1="75" y1="355" x2="830" y2="355" stroke="#333" stroke-width="1.2" />
  
      <line x1="75" y1="355" x2="75" y2="361" stroke="#333" stroke-width="1" />
      <text x="75" y="379" text-anchor="middle" font-size="13" font-family="Arial">0</text>
    

      <line x1="263.75" y1="355" x2="263.75" y2="361" stroke="#333" stroke-width="1" />
      <text x="263.75" y="379" text-anchor="middle" font-size="13" font-family="Arial">5</text>
    

      <line x1="452.5" y1="355" x2="452.5" y2="361" stroke="#333" stroke-width="1" />
      <text x="452.5" y="379" text-anchor="middle" font-size="13" font-family="Arial">10</text>
    

      <line x1="641.25" y1="355" x2="641.25" y2="361" stroke="#333" stroke-width="1" />
      <text x="641.25" y="379" text-anchor="middle" font-size="13" font-family="Arial">15</text>
    

      <line x1="830" y1="355" x2="830" y2="361" stroke="#333" stroke-width="1" />
      <text x="830" y="379" text-anchor="middle" font-size="13" font-family="Arial">20</text>
    
  <line x1="75" y1="35" x2="75" y2="355" stroke="#333" stroke-width="1.2" />

  <text x="452.5" y="400" text-anchor="middle" font-size="15" font-family="Arial">
    Час t, хв
  </text>

  <text x="22" y="210" transform="rotate(-90 22 210)" text-anchor="middle" font-size="15" font-family="Arial">
    Нормований рівень ризику
  </text>

  <line x1="75" y1="243" x2="830" y2="243" stroke="#bdbdbd" stroke-width="1" stroke-dasharray="4 4" />
  <text x="83" y="237" font-size="12" font-family="Arial" fill="#666">R = 0.35</text>

  <line x1="75" y1="147" x2="830" y2="147" stroke="#bdbdbd" stroke-width="1" stroke-dasharray="4 4" />
  <text x="83" y="141" font-size="12" font-family="Arial" fill="#666">R = 0.65</text>

  <polyline points="75,279.48 112.75,270.2 150.5,261.88 188.25,254.2 226,247.16 263.75,240.76 301.5,234.68 339.25,229.24 377,224.12 414.75,219.32 452.5,214.84 490.25000000000006,210.68 528,206.51999999999998 565.75,203 603.5,199.16 641.25,195.96 679,192.76 716.75,189.88 754.5,185.39999999999998 792.25,183.79999999999998 830,182.2" fill="none" stroke="black" stroke-width="2.6" />
  <circle cx="75" cy="279.48" r="3" fill="white" stroke="black" stroke-width="1.4" />
<circle cx="112.75" cy="270.2" r="3" fill="white" stroke="black" stroke-width="1.4" />
<circle cx="150.5" cy="261.88" r="3" fill="white" stroke="black" stroke-width="1.4" />
<circle cx="188.25" cy="254.2" r="3" fill="white" stroke="black" stroke-width="1.4" />
<circle cx="226" cy="247.16" r="3" fill="white" stroke="black" stroke-width="1.4" />
<circle cx="263.75" cy="240.76" r="3" fill="white" stroke="black" stroke-width="1.4" />
<circle cx="301.5" cy="234.68" r="3" fill="white" stroke="black" stroke-width="1.4" />
<circle cx="339.25" cy="229.24" r="3" fill="white" stroke="black" stroke-width="1.4" />
<circle cx="377" cy="224.12" r="3" fill="white" stroke="black" stroke-width="1.4" />
<circle cx="414.75" cy="219.32" r="3" fill="white" stroke="black" stroke-width="1.4" />
<circle cx="452.5" cy="214.84" r="3" fill="white" stroke="black" stroke-width="1.4" />
<circle cx="490.25000000000006" cy="210.68" r="3" fill="white" stroke="black" stroke-width="1.4" />
<circle cx="528" cy="206.51999999999998" r="3" fill="white" stroke="black" stroke-width="1.4" />
<circle cx="565.75" cy="203" r="3" fill="white" stroke="black" stroke-width="1.4" />
<circle cx="603.5" cy="199.16" r="3" fill="white" stroke="black" stroke-width="1.4" />
<circle cx="641.25" cy="195.96" r="3" fill="white" stroke="black" stroke-width="1.4" />
<circle cx="679" cy="192.76" r="3" fill="white" stroke="black" stroke-width="1.4" />
<circle cx="716.75" cy="189.88" r="3" fill="white" stroke="black" stroke-width="1.4" />
<circle cx="754.5" cy="185.39999999999998" r="3" fill="white" stroke="black" stroke-width="1.4" />
<circle cx="792.25" cy="183.79999999999998" r="3" fill="white" stroke="black" stroke-width="1.4" />
<circle cx="830" cy="182.2" r="3" fill="white" stroke="black" stroke-width="1.4" />

  <polyline points="75,259.96000000000004 112.75,251 150.5,243 188.25,235.96 226,229.56 263.75,223.8 301.5,218.36 339.25,213.56 377,209.4 414.75,205.56 452.5,202.04000000000002 490.25000000000006,198.52 528,195.32 565.75,192.44 603.5,189.24 641.25,186.35999999999999 679,183.48 716.75,180.27999999999997 754.5,174.52 792.25,170.68 830,169.4" fill="none" stroke="#666" stroke-width="2" stroke-dasharray="8 5" />
  <circle cx="75" cy="259.96000000000004" r="2.7" fill="white" stroke="#666" stroke-width="1.4" />
<circle cx="112.75" cy="251" r="2.7" fill="white" stroke="#666" stroke-width="1.4" />
<circle cx="150.5" cy="243" r="2.7" fill="white" stroke="#666" stroke-width="1.4" />
<circle cx="188.25" cy="235.96" r="2.7" fill="white" stroke="#666" stroke-width="1.4" />
<circle cx="226" cy="229.56" r="2.7" fill="white" stroke="#666" stroke-width="1.4" />
<circle cx="263.75" cy="223.8" r="2.7" fill="white" stroke="#666" stroke-width="1.4" />
<circle cx="301.5" cy="218.36" r="2.7" fill="white" stroke="#666" stroke-width="1.4" />
<circle cx="339.25" cy="213.56" r="2.7" fill="white" stroke="#666" stroke-width="1.4" />
<circle cx="377" cy="209.4" r="2.7" fill="white" stroke="#666" stroke-width="1.4" />
<circle cx="414.75" cy="205.56" r="2.7" fill="white" stroke="#666" stroke-width="1.4" />
<circle cx="452.5" cy="202.04000000000002" r="2.7" fill="white" stroke="#666" stroke-width="1.4" />
<circle cx="490.25000000000006" cy="198.52" r="2.7" fill="white" stroke="#666" stroke-width="1.4" />
<circle cx="528" cy="195.32" r="2.7" fill="white" stroke="#666" stroke-width="1.4" />
<circle cx="565.75" cy="192.44" r="2.7" fill="white" stroke="#666" stroke-width="1.4" />
<circle cx="603.5" cy="189.24" r="2.7" fill="white" stroke="#666" stroke-width="1.4" />
<circle cx="641.25" cy="186.35999999999999" r="2.7" fill="white" stroke="#666" stroke-width="1.4" />
<circle cx="679" cy="183.48" r="2.7" fill="white" stroke="#666" stroke-width="1.4" />
<circle cx="716.75" cy="180.27999999999997" r="2.7" fill="white" stroke="#666" stroke-width="1.4" />
<circle cx="754.5" cy="174.52" r="2.7" fill="white" stroke="#666" stroke-width="1.4" />
<circle cx="792.25" cy="170.68" r="2.7" fill="white" stroke="#666" stroke-width="1.4" />
<circle cx="830" cy="169.4" r="2.7" fill="white" stroke="#666" stroke-width="1.4" />

  <polyline points="75,329.72 112.75,327.8 150.5,325.88 188.25,323.96 226,322.04 263.75,320.12 301.5,318.2 339.25,316.28 377,314.36 414.75,312.44 452.5,310.2 490.25000000000006,308.28 528,306.36 565.75,304.44 603.5,302.52 641.25,300.6 679,298.68 716.75,296.76 754.5,294.84000000000003 792.25,292.92 830,291" fill="none" stroke="#999" stroke-width="1.8" stroke-dasharray="3 5" />

  <g data-legend="risk-series">
  <line x1="865" y1="55" x2="920" y2="55" stroke="black" stroke-width="2.6" />
  <text x="932" y="60" font-size="14" font-family="Arial">
    - R<tspan baseline-shift="sub" font-size="10">total</tspan>
  </text>

  <line x1="865" y1="80" x2="920" y2="80" stroke="#666" stroke-width="2" stroke-dasharray="8 5" />
  <text x="932" y="85" font-size="14" font-family="Arial">
    - R<tspan baseline-shift="sub" font-size="10">geo</tspan>
  </text>

  <line x1="865" y1="105" x2="920" y2="105" stroke="#999" stroke-width="1.8" stroke-dasharray="3 5" />
  <text x="932" y="110" font-size="14" font-family="Arial">
    - R<tspan baseline-shift="sub" font-size="10">env</tspan>
  </text>
  </g>
</svg>