<svg xmlns="http://www.w3.org/2000/svg" width="1080" height="420" viewBox="0 0 1080 420" data-plot-right="830">
  <rect width="100%" height="100%" fill="white" />

  
      <line x1="75" y1="355" x2="830" y2="355" stroke="#e5e5e5" stroke-width="1" />
      <text x="60" y="360" text-anchor="end" font-size="13" font-family="Arial">0.0</text>
    

      <line x1="75" y1="291" x2="830" y2="291" stroke="#e5e5e5" stroke-width="1" />
      <text x="60" y="296" text-anchor="end" font-size="13" font-family="Arial">0.2</text>
    

      <line x1="75" y1="227" x2="830" y2="227" stroke="#e5e5e5" stroke-width="1" />
      <text x="60" y="232" text-anchor="end" font-size="13" font-family="Arial">0.4</text>
    

      <line x1="75" y1="163" x2="830" y2="163" stroke="#e5e5e5" stroke-width="1" />
      <text x="60" y="168" text-anchor="end" font-size="13" font-family="Arial">0.6</text>
    

      <line x1="75" y1="99" x2="830" y2="99" stroke="#e5e5e5" stroke-width="1" />
      <text x="60" y="104" text-anchor="end" font-size="13" font-family="Arial">0.8</text>
    

      <line x1="75" y1="35" x2="830" y2="35" stroke="#e5e5e5" stroke-width="1" />
      <text x="60" y="40" text-anchor="end" font-size="13" font-family="Arial">1.0</text>
    

  <line x1="75" y1="355" x2="830" y2="355" stroke="#333" stroke-width="1.2" />
  
      <line x1="75" y1="355" x2="75" y2="361" stroke="#333" stroke-width="1" />
      <text x="75" y="379" text-anchor="middle" font-size="13" font-family="Arial">0</text>
    

      <line x1="263.75" y1="355" x2="263.75" y2="361" stroke="#333" stroke-width="1" />
      <text x="263.75" y="379" text-anchor="middle" font-size="13" font-family="Arial">5</text>
    

      <line x1="452.5" y1="355" x2="452.5" y2="361" stroke="#333" stroke-width="1" />
      <text x="452.5" y="379" text-anchor="middle" font-size="13" font-family="Arial">10</text>
    

      <line x1="641.25" y1="355" x2="641.25" y2="361" stroke="#333" stroke-width="1" />
      <text x="641.25" y="379" text-anchor="middle" font-size="13" font-family="Arial">15</text>
    

      <line x1="830" y1="355" x2="830" y2="361" stroke="#333" stroke-width="1" />
      <text x="830" y="379" text-anchor="middle" font-size="13" font-family="Arial">20</text>
    
  <line x1="75" y1="35" x2="75" y2="355" stroke="#333" stroke-width="1.2" />

  <text x="452.5" y="400" text-anchor="middle" font-size="15" font-family="Arial">
    Час t, хв
  </text>

  <text x="22" y="210" transform="rotate(-90 22 210)" text-anchor="middle" font-size="15" font-family="Arial">
    Нормований рівень ризику
  </text>

  <line x1="75" y1="243" x2="830" y2="243" stroke="#bdbdbd" stroke-width="1" stroke-dasharray="4 4" />
  <text x="83" y="237" font-size="12" font-family="Arial" fill="#666">R = 0.35</text>

  <line x1="75" y1="147" x2="830" y2="147" stroke="#bdbdbd" stroke-width="1" stroke-dasharray="4 4" />
  <text x="83" y="141" font-size="12" font-family="Arial" fill="#666">R = 0.65</text>

  <polyline points="75,282.68 112.75,271.15999999999997 150.5,260.6 188.25,250.68 226,241.72 263.75,233.07999999999998 301.5,225.39999999999998 339.25,217.72 377,210.68 414.75,203.96 452.5,197.56 490.25000000000006,191.8 528,186.04 565.75,180.6 603.5,175.48 641.25,170.68 679,165.88 716.75,161.72 754.5,157.56 792.25,153.72 830,150.2" fill="none" stroke="black" stroke-width="2.6" />
  <circle cx="75" cy="282.68" r="3" fill="white" stroke="black" stroke-width="1.4" />
<circle cx="112.75" cy="271.15999999999997" r="3" fill="white" stroke="black" stroke-width="1.4" />
<circle cx="150.5" cy="260.6" r="3" fill="white" stroke="black" stroke-width="1.4" />
<circle cx="188.25" cy="250.68" r="3" fill="white" stroke="black" stroke-width="1.4" />
<circle cx="226" cy="241.72" r="3" fill="white" stroke="black" stroke-width="1.4" />
<circle cx="263.75" cy="233.07999999999998" r="3" fill="white" stroke="black" stroke-width="1.4" />
<circle cx="301.5" cy="225.39999999999998" r="3" fill="white" stroke="black" stroke-width="1.4" />
<circle cx="339.25" cy="217.72" r="3" fill="white" stroke="black" stroke-width="1.4" />
<circle cx="377" cy="210.68" r="3" fill="white" stroke="black" stroke-width="1.4" />
<circle cx="414.75" cy="203.96" r="3" fill="white" stroke="black" stroke-width="1.4" />
<circle cx="452.5" cy="197.56" r="3" fill="white" stroke="black" stroke-width="1.4" />
<circle cx="490.25000000000006" cy="191.8" r="3" fill="white" stroke="black" stroke-width="1.4" />
<circle cx="528" cy="186.04" r="3" fill="white" stroke="black" stroke-width="1.4" />
<circle cx="565.75" cy="180.6" r="3" fill="white" stroke="black" stroke-width="1.4" />
<circle cx="603.5" cy="175.48" r="3" fill="white" stroke="black" stroke-width="1.4" />
<circle cx="641.25" cy="170.68" r="3" fill="white" stroke="black" stroke-width="1.4" />
<circle cx="679" cy="165.88" r="3" fill="white" stroke="black" stroke-width="1.4" />
<circle cx="716.75" cy="161.72" r="3" fill="white" stroke="black" stroke-width="1.4" />
<circle cx="754.5" cy="157.56" r="3" fill="white" stroke="black" stroke-width="1.4" />
<circle cx="792.25" cy="153.72" r="3" fill="white" stroke="black" stroke-width="1.4" />
<circle cx="830" cy="150.2" r="3" fill="white" stroke="black" stroke-width="1.4" />

  <polyline points="75,250.04 112.75,240.12 150.5,230.51999999999998 188.25,222.20000000000002 226,214.2 263.75,206.84 301.5,200.44 339.25,194.04 377,188.28 414.75,182.83999999999997 452.5,177.71999999999997 490.25000000000006,172.60000000000002 528,168.12 565.75,163.32 603.5,158.84 641.25,154.04 679,149.24 716.75,144.12 754.5,136.76 792.25,131 830,127.80000000000001" fill="none" stroke="#666" stroke-width="2" stroke-dasharray="8 5" />
  <circle cx="75" cy="250.04" r="2.7" fill="white" stroke="#666" stroke-width="1.4" />
<circle cx="112.75" cy="240.12" r="2.7" fill="white" stroke="#666" stroke-width="1.4" />
<circle cx="150.5" cy="230.51999999999998" r="2.7" fill="white" stroke="#666" stroke-width="1.4" />
<circle cx="188.25" cy="222.20000000000002" r="2.7" fill="white" stroke="#666" stroke-width="1.4" />
<circle cx="226" cy="214.2" r="2.7" fill="white" stroke="#666" stroke-width="1.4" />
<circle cx="263.75" cy="206.84" r="2.7" fill="white" stroke="#666" stroke-width="1.4" />
<circle cx="301.5" cy="200.44" r="2.7" fill="white" stroke="#666" stroke-width="1.4" />
<circle cx="339.25" cy="194.04" r="2.7" fill="white" stroke="#666" stroke-width="1.4" />
<circle cx="377" cy="188.28" r="2.7" fill="white" stroke="#666" stroke-width="1.4" />
<circle cx="414.75" cy="182.83999999999997" r="2.7" fill="white" stroke="#666" stroke-width="1.4" />
<circle cx="452.5" cy="177.71999999999997" r="2.7" fill="white" stroke="#666" stroke-width="1.4" />
<circle cx="490.25000000000006" cy="172.60000000000002" r="2.7" fill="white" stroke="#666" stroke-width="1.4" />
<circle cx="528" cy="168.12" r="2.7" fill="white" stroke="#666" stroke-width="1.4" />
<circle cx="565.75" cy="163.32" r="2.7" fill="white" stroke="#666" stroke-width="1.4" />
<circle cx="603.5" cy="158.84" r="2.7" fill="white" stroke="#666" stroke-width="1.4" />
<circle cx="641.25" cy="154.04" r="2.7" fill="white" stroke="#666" stroke-width="1.4" />
<circle cx="679" cy="149.24" r="2.7" fill="white" stroke="#666" stroke-width="1.4" />
<circle cx="716.75" cy="144.12" r="2.7" fill="white" stroke="#666" stroke-width="1.4" />
<circle cx="754.5" cy="136.76" r="2.7" fill="white" stroke="#666" stroke-width="1.4" />
<circle cx="792.25" cy="131" r="2.7" fill="white" stroke="#666" stroke-width="1.4" />
<circle cx="830" cy="127.80000000000001" r="2.7" fill="white" stroke="#666" stroke-width="1.4" />

  <polyline points="75,347 112.75,345.4 150.5,343.8 188.25,342.52 226,340.92 263.75,339.32 301.5,338.04 339.25,336.44 377,334.84 414.75,333.24 452.5,331.64 490.25000000000006,330.36 528,328.76 565.75,327.16 603.5,325.88 641.25,324.28 679,322.68 716.75,321.08 754.5,319.48 792.25,318.2 830,316.6" fill="none" stroke="#999" stroke-width="1.8" stroke-dasharray="3 5" />

  <g data-legend="risk-series">
  <line x1="865" y1="55" x2="920" y2="55" stroke="black" stroke-width="2.6" />
  <text x="932" y="60" font-size="14" font-family="Arial">
    - R<tspan baseline-shift="sub" font-size="10">total</tspan>
  </text>

  <line x1="865" y1="80" x2="920" y2="80" stroke="#666" stroke-width="2" stroke-dasharray="8 5" />
  <text x="932" y="85" font-size="14" font-family="Arial">
    - R<tspan baseline-shift="sub" font-size="10">geo</tspan>
  </text>

  <line x1="865" y1="105" x2="920" y2="105" stroke="#999" stroke-width="1.8" stroke-dasharray="3 5" />
  <text x="932" y="110" font-size="14" font-family="Arial">
    - R<tspan baseline-shift="sub" font-size="10">env</tspan>
  </text>
  </g>
</svg>