<svg xmlns="http://www.w3.org/2000/svg" width="1080" height="420" viewBox="0 0 1080 420" data-plot-right="830">
  <rect width="100%" height="100%" fill="white" />

  
      <line x1="75" y1="355" x2="830" y2="355" stroke="#e5e5e5" stroke-width="1" />
      <text x="60" y="360" text-anchor="end" font-size="13" font-family="Arial">0.0</text>
    

      <line x1="75" y1="291" x2="830" y2="291" stroke="#e5e5e5" stroke-width="1" />
      <text x="60" y="296" text-anchor="end" font-size="13" font-family="Arial">0.2</text>
    

      <line x1="75" y1="227" x2="830" y2="227" stroke="#e5e5e5" stroke-width="1" />
      <text x="60" y="232" text-anchor="end" font-size="13" font-family="Arial">0.4</text>
    

      <line x1="75" y1="163" x2="830" y2="163" stroke="#e5e5e5" stroke-width="1" />
      <text x="60" y="168" text-anchor="end" font-size="13" font-family="Arial">0.6</text>
    

      <line x1="75" y1="99" x2="830" y2="99" stroke="#e5e5e5" stroke-width="1" />
      <text x="60" y="104" text-anchor="end" font-size="13" font-family="Arial">0.8</text>
    

      <line x1="75" y1="35" x2="830" y2="35" stroke="#e5e5e5" stroke-width="1" />
      <text x="60" y="40" text-anchor="end" font-size="13" font-family="Arial">1.0</text>
    

  <line x1="75" y1="355" x2="830" y2="355" stroke="#333" stroke-width="1.2" />
  
      <line x1="75" y1="355" x2="75" y2="361" stroke="#333" stroke-width="1" />
      <text x="75" y="379" text-anchor="middle" font-size="13" font-family="Arial">0</text>
    

      <line x1="263.75" y1="355" x2="263.75" y2="361" stroke="#333" stroke-width="1" />
      <text x="263.75" y="379" text-anchor="middle" font-size="13" font-family="Arial">5</text>
    

      <line x1="452.5" y1="355" x2="452.5" y2="361" stroke="#333" stroke-width="1" />
      <text x="452.5" y="379" text-anchor="middle" font-size="13" font-family="Arial">10</text>
    

      <line x1="641.25" y1="355" x2="641.25" y2="361" stroke="#333" stroke-width="1" />
      <text x="641.25" y="379" text-anchor="middle" font-size="13" font-family="Arial">15</text>
    

      <line x1="830" y1="355" x2="830" y2="361" stroke="#333" stroke-width="1" />
      <text x="830" y="379" text-anchor="middle" font-size="13" font-family="Arial">20</text>
    
  <line x1="75" y1="35" x2="75" y2="355" stroke="#333" stroke-width="1.2" />

  <text x="452.5" y="400" text-anchor="middle" font-size="15" font-family="Arial">
    Час t, хв
  </text>

  <text x="22" y="210" transform="rotate(-90 22 210)" text-anchor="middle" font-size="15" font-family="Arial">
    Нормований рівень ризику
  </text>

  <line x1="75" y1="243" x2="830" y2="243" stroke="#bdbdbd" stroke-width="1" stroke-dasharray="4 4" />
  <text x="83" y="237" font-size="12" font-family="Arial" fill="#666">R = 0.35</text>

  <line x1="75" y1="147" x2="830" y2="147" stroke="#bdbdbd" stroke-width="1" stroke-dasharray="4 4" />
  <text x="83" y="141" font-size="12" font-family="Arial" fill="#666">R = 0.65</text>

  <polyline points="75,311.15999999999997 112.75,306.04 150.5,302.2 188.25,298.68 226,295.48 263.75,292.92 301.5,290.68 339.25,288.76 377,287.48 414.75,286.2 452.5,285.24 490.25000000000006,284.28 528,283.64 565.75,283 603.5,282.68 641.25,282.03999999999996 679,281.72 716.75,281.72 754.5,281.4 792.25,281.4 830,281.4" fill="none" stroke="black" stroke-width="2.6" />
  <circle cx="75" cy="311.15999999999997" r="3" fill="white" stroke="black" stroke-width="1.4" />
<circle cx="112.75" cy="306.04" r="3" fill="white" stroke="black" stroke-width="1.4" />
<circle cx="150.5" cy="302.2" r="3" fill="white" stroke="black" stroke-width="1.4" />
<circle cx="188.25" cy="298.68" r="3" fill="white" stroke="black" stroke-width="1.4" />
<circle cx="226" cy="295.48" r="3" fill="white" stroke="black" stroke-width="1.4" />
<circle cx="263.75" cy="292.92" r="3" fill="white" stroke="black" stroke-width="1.4" />
<circle cx="301.5" cy="290.68" r="3" fill="white" stroke="black" stroke-width="1.4" />
<circle cx="339.25" cy="288.76" r="3" fill="white" stroke="black" stroke-width="1.4" />
<circle cx="377" cy="287.48" r="3" fill="white" stroke="black" stroke-width="1.4" />
<circle cx="414.75" cy="286.2" r="3" fill="white" stroke="black" stroke-width="1.4" />
<circle cx="452.5" cy="285.24" r="3" fill="white" stroke="black" stroke-width="1.4" />
<circle cx="490.25000000000006" cy="284.28" r="3" fill="white" stroke="black" stroke-width="1.4" />
<circle cx="528" cy="283.64" r="3" fill="white" stroke="black" stroke-width="1.4" />
<circle cx="565.75" cy="283" r="3" fill="white" stroke="black" stroke-width="1.4" />
<circle cx="603.5" cy="282.68" r="3" fill="white" stroke="black" stroke-width="1.4" />
<circle cx="641.25" cy="282.03999999999996" r="3" fill="white" stroke="black" stroke-width="1.4" />
<circle cx="679" cy="281.72" r="3" fill="white" stroke="black" stroke-width="1.4" />
<circle cx="716.75" cy="281.72" r="3" fill="white" stroke="black" stroke-width="1.4" />
<circle cx="754.5" cy="281.4" r="3" fill="white" stroke="black" stroke-width="1.4" />
<circle cx="792.25" cy="281.4" r="3" fill="white" stroke="black" stroke-width="1.4" />
<circle cx="830" cy="281.4" r="3" fill="white" stroke="black" stroke-width="1.4" />

  <polyline points="75,313.08 112.75,305.4 150.5,299 188.25,293.24 226,287.8 263.75,283.64 301.5,279.48 339.25,275.96000000000004 377,273.4 414.75,270.84000000000003 452.5,268.6 490.25000000000006,267 528,265.4 565.75,263.8 603.5,262.52 641.25,261.24 679,259.64 716.75,258.36 754.5,256.76 792.25,254.2 830,252.6" fill="none" stroke="#666" stroke-width="2" stroke-dasharray="8 5" />
  <circle cx="75" cy="313.08" r="2.7" fill="white" stroke="#666" stroke-width="1.4" />
<circle cx="112.75" cy="305.4" r="2.7" fill="white" stroke="#666" stroke-width="1.4" />
<circle cx="150.5" cy="299" r="2.7" fill="white" stroke="#666" stroke-width="1.4" />
<circle cx="188.25" cy="293.24" r="2.7" fill="white" stroke="#666" stroke-width="1.4" />
<circle cx="226" cy="287.8" r="2.7" fill="white" stroke="#666" stroke-width="1.4" />
<circle cx="263.75" cy="283.64" r="2.7" fill="white" stroke="#666" stroke-width="1.4" />
<circle cx="301.5" cy="279.48" r="2.7" fill="white" stroke="#666" stroke-width="1.4" />
<circle cx="339.25" cy="275.96000000000004" r="2.7" fill="white" stroke="#666" stroke-width="1.4" />
<circle cx="377" cy="273.4" r="2.7" fill="white" stroke="#666" stroke-width="1.4" />
<circle cx="414.75" cy="270.84000000000003" r="2.7" fill="white" stroke="#666" stroke-width="1.4" />
<circle cx="452.5" cy="268.6" r="2.7" fill="white" stroke="#666" stroke-width="1.4" />
<circle cx="490.25000000000006" cy="267" r="2.7" fill="white" stroke="#666" stroke-width="1.4" />
<circle cx="528" cy="265.4" r="2.7" fill="white" stroke="#666" stroke-width="1.4" />
<circle cx="565.75" cy="263.8" r="2.7" fill="white" stroke="#666" stroke-width="1.4" />
<circle cx="603.5" cy="262.52" r="2.7" fill="white" stroke="#666" stroke-width="1.4" />
<circle cx="641.25" cy="261.24" r="2.7" fill="white" stroke="#666" stroke-width="1.4" />
<circle cx="679" cy="259.64" r="2.7" fill="white" stroke="#666" stroke-width="1.4" />
<circle cx="716.75" cy="258.36" r="2.7" fill="white" stroke="#666" stroke-width="1.4" />
<circle cx="754.5" cy="256.76" r="2.7" fill="white" stroke="#666" stroke-width="1.4" />
<circle cx="792.25" cy="254.2" r="2.7" fill="white" stroke="#666" stroke-width="1.4" />
<circle cx="830" cy="252.6" r="2.7" fill="white" stroke="#666" stroke-width="1.4" />

  <polyline points="75,347 112.75,345.72 150.5,344.44 188.25,343.48 226,342.2 263.75,340.92 301.5,339.64 339.25,338.68 377,337.4 414.75,336.12 452.5,334.84 490.25000000000006,333.88 528,332.6 565.75,331.32 603.5,330.04 641.25,329.08 679,327.8 716.75,326.52 754.5,325.24 792.25,324.28 830,323" fill="none" stroke="#999" stroke-width="1.8" stroke-dasharray="3 5" />

  <g data-legend="risk-series">
  <line x1="865" y1="55" x2="920" y2="55" stroke="black" stroke-width="2.6" />
  <text x="932" y="60" font-size="14" font-family="Arial">
    - R<tspan baseline-shift="sub" font-size="10">total</tspan>
  </text>

  <line x1="865" y1="80" x2="920" y2="80" stroke="#666" stroke-width="2" stroke-dasharray="8 5" />
  <text x="932" y="85" font-size="14" font-family="Arial">
    - R<tspan baseline-shift="sub" font-size="10">geo</tspan>
  </text>

  <line x1="865" y1="105" x2="920" y2="105" stroke="#999" stroke-width="1.8" stroke-dasharray="3 5" />
  <text x="932" y="110" font-size="14" font-family="Arial">
    - R<tspan baseline-shift="sub" font-size="10">env</tspan>
  </text>
  </g>
</svg>