<svg xmlns="http://www.w3.org/2000/svg" width="1080" height="420" viewBox="0 0 1080 420" data-plot-right="830">
  <rect width="100%" height="100%" fill="white" />

  
      <line x1="75" y1="355" x2="830" y2="355" stroke="#e5e5e5" stroke-width="1" />
      <text x="60" y="360" text-anchor="end" font-size="13" font-family="Arial">0.0</text>
    

      <line x1="75" y1="291" x2="830" y2="291" stroke="#e5e5e5" stroke-width="1" />
      <text x="60" y="296" text-anchor="end" font-size="13" font-family="Arial">0.2</text>
    

      <line x1="75" y1="227" x2="830" y2="227" stroke="#e5e5e5" stroke-width="1" />
      <text x="60" y="232" text-anchor="end" font-size="13" font-family="Arial">0.4</text>
    

      <line x1="75" y1="163" x2="830" y2="163" stroke="#e5e5e5" stroke-width="1" />
      <text x="60" y="168" text-anchor="end" font-size="13" font-family="Arial">0.6</text>
    

      <line x1="75" y1="99" x2="830" y2="99" stroke="#e5e5e5" stroke-width="1" />
      <text x="60" y="104" text-anchor="end" font-size="13" font-family="Arial">0.8</text>
    

      <line x1="75" y1="35" x2="830" y2="35" stroke="#e5e5e5" stroke-width="1" />
      <text x="60" y="40" text-anchor="end" font-size="13" font-family="Arial">1.0</text>
    

  <line x1="75" y1="355" x2="830" y2="355" stroke="#333" stroke-width="1.2" />
  
      <line x1="75" y1="355" x2="75" y2="361" stroke="#333" stroke-width="1" />
      <text x="75" y="379" text-anchor="middle" font-size="13" font-family="Arial">0</text>
    

      <line x1="263.75" y1="355" x2="263.75" y2="361" stroke="#333" stroke-width="1" />
      <text x="263.75" y="379" text-anchor="middle" font-size="13" font-family="Arial">5</text>
    

      <line x1="452.5" y1="355" x2="452.5" y2="361" stroke="#333" stroke-width="1" />
      <text x="452.5" y="379" text-anchor="middle" font-size="13" font-family="Arial">10</text>
    

      <line x1="641.25" y1="355" x2="641.25" y2="361" stroke="#333" stroke-width="1" />
      <text x="641.25" y="379" text-anchor="middle" font-size="13" font-family="Arial">15</text>
    

      <line x1="830" y1="355" x2="830" y2="361" stroke="#333" stroke-width="1" />
      <text x="830" y="379" text-anchor="middle" font-size="13" font-family="Arial">20</text>
    
  <line x1="75" y1="35" x2="75" y2="355" stroke="#333" stroke-width="1.2" />

  <text x="452.5" y="400" text-anchor="middle" font-size="15" font-family="Arial">
    Час t, хв
  </text>

  <text x="22" y="210" transform="rotate(-90 22 210)" text-anchor="middle" font-size="15" font-family="Arial">
    Нормований рівень ризику
  </text>

  <line x1="75" y1="243" x2="830" y2="243" stroke="#bdbdbd" stroke-width="1" stroke-dasharray="4 4" />
  <text x="83" y="237" font-size="12" font-family="Arial" fill="#666">R = 0.35</text>

  <line x1="75" y1="147" x2="830" y2="147" stroke="#bdbdbd" stroke-width="1" stroke-dasharray="4 4" />
  <text x="83" y="141" font-size="12" font-family="Arial" fill="#666">R = 0.65</text>

  <polyline points="75,206.51999999999998 112.75,190.51999999999998 150.5,175.48 188.25,161.72 226,149.56 263.75,138.35999999999999 301.5,128.12 339.25,118.84 377,110.84 414.75,94.52000000000004 452.5,75.63999999999999 490.25000000000006,71.80000000000001 528,68.27999999999997 565.75,65.71999999999997 603.5,63.48000000000002 641.25,61.56 679,59.95999999999998 716.75,59.639999999999986 754.5,59.639999999999986 792.25,59.95999999999998 830,60.599999999999966" fill="none" stroke="black" stroke-width="2.6" />
  <circle cx="75" cy="206.51999999999998" r="3" fill="white" stroke="black" stroke-width="1.4" />
<circle cx="112.75" cy="190.51999999999998" r="3" fill="white" stroke="black" stroke-width="1.4" />
<circle cx="150.5" cy="175.48" r="3" fill="white" stroke="black" stroke-width="1.4" />
<circle cx="188.25" cy="161.72" r="3" fill="white" stroke="black" stroke-width="1.4" />
<circle cx="226" cy="149.56" r="3" fill="white" stroke="black" stroke-width="1.4" />
<circle cx="263.75" cy="138.35999999999999" r="3" fill="white" stroke="black" stroke-width="1.4" />
<circle cx="301.5" cy="128.12" r="3" fill="white" stroke="black" stroke-width="1.4" />
<circle cx="339.25" cy="118.84" r="3" fill="white" stroke="black" stroke-width="1.4" />
<circle cx="377" cy="110.84" r="3" fill="white" stroke="black" stroke-width="1.4" />
<circle cx="414.75" cy="94.52000000000004" r="3" fill="white" stroke="black" stroke-width="1.4" />
<circle cx="452.5" cy="75.63999999999999" r="3" fill="white" stroke="black" stroke-width="1.4" />
<circle cx="490.25000000000006" cy="71.80000000000001" r="3" fill="white" stroke="black" stroke-width="1.4" />
<circle cx="528" cy="68.27999999999997" r="3" fill="white" stroke="black" stroke-width="1.4" />
<circle cx="565.75" cy="65.71999999999997" r="3" fill="white" stroke="black" stroke-width="1.4" />
<circle cx="603.5" cy="63.48000000000002" r="3" fill="white" stroke="black" stroke-width="1.4" />
<circle cx="641.25" cy="61.56" r="3" fill="white" stroke="black" stroke-width="1.4" />
<circle cx="679" cy="59.95999999999998" r="3" fill="white" stroke="black" stroke-width="1.4" />
<circle cx="716.75" cy="59.639999999999986" r="3" fill="white" stroke="black" stroke-width="1.4" />
<circle cx="754.5" cy="59.639999999999986" r="3" fill="white" stroke="black" stroke-width="1.4" />
<circle cx="792.25" cy="59.95999999999998" r="3" fill="white" stroke="black" stroke-width="1.4" />
<circle cx="830" cy="60.599999999999966" r="3" fill="white" stroke="black" stroke-width="1.4" />

  <polyline points="75,298.68 112.75,280.44 150.5,263.48 188.25,247.16 226,232.12 263.75,218.36 301.5,205.23999999999998 339.25,193.07999999999998 377,181.88 414.75,171.32000000000002 452.5,161.4 490.25000000000006,152.12 528,143.16 565.75,135.15999999999997 603.5,127.48000000000002 641.25,115.96000000000001 679,106.03999999999999 716.75,98.03999999999996 754.5,96.44 792.25,89.40000000000003 830,86.19999999999999" fill="none" stroke="#666" stroke-width="2" stroke-dasharray="8 5" />
  <circle cx="75" cy="298.68" r="2.7" fill="white" stroke="#666" stroke-width="1.4" />
<circle cx="112.75" cy="280.44" r="2.7" fill="white" stroke="#666" stroke-width="1.4" />
<circle cx="150.5" cy="263.48" r="2.7" fill="white" stroke="#666" stroke-width="1.4" />
<circle cx="188.25" cy="247.16" r="2.7" fill="white" stroke="#666" stroke-width="1.4" />
<circle cx="226" cy="232.12" r="2.7" fill="white" stroke="#666" stroke-width="1.4" />
<circle cx="263.75" cy="218.36" r="2.7" fill="white" stroke="#666" stroke-width="1.4" />
<circle cx="301.5" cy="205.23999999999998" r="2.7" fill="white" stroke="#666" stroke-width="1.4" />
<circle cx="339.25" cy="193.07999999999998" r="2.7" fill="white" stroke="#666" stroke-width="1.4" />
<circle cx="377" cy="181.88" r="2.7" fill="white" stroke="#666" stroke-width="1.4" />
<circle cx="414.75" cy="171.32000000000002" r="2.7" fill="white" stroke="#666" stroke-width="1.4" />
<circle cx="452.5" cy="161.4" r="2.7" fill="white" stroke="#666" stroke-width="1.4" />
<circle cx="490.25000000000006" cy="152.12" r="2.7" fill="white" stroke="#666" stroke-width="1.4" />
<circle cx="528" cy="143.16" r="2.7" fill="white" stroke="#666" stroke-width="1.4" />
<circle cx="565.75" cy="135.15999999999997" r="2.7" fill="white" stroke="#666" stroke-width="1.4" />
<circle cx="603.5" cy="127.48000000000002" r="2.7" fill="white" stroke="#666" stroke-width="1.4" />
<circle cx="641.25" cy="115.96000000000001" r="2.7" fill="white" stroke="#666" stroke-width="1.4" />
<circle cx="679" cy="106.03999999999999" r="2.7" fill="white" stroke="#666" stroke-width="1.4" />
<circle cx="716.75" cy="98.03999999999996" r="2.7" fill="white" stroke="#666" stroke-width="1.4" />
<circle cx="754.5" cy="96.44" r="2.7" fill="white" stroke="#666" stroke-width="1.4" />
<circle cx="792.25" cy="89.40000000000003" r="2.7" fill="white" stroke="#666" stroke-width="1.4" />
<circle cx="830" cy="86.19999999999999" r="2.7" fill="white" stroke="#666" stroke-width="1.4" />

  <polyline points="75,110.51999999999998 112.75,109.56 150.5,108.28 188.25,107.32 226,106.35999999999999 263.75,105.39999999999998 301.5,104.12 339.25,103.16 377,102.19999999999999 414.75,100.91999999999999 452.5,99.95999999999998 490.25000000000006,99 528,97.71999999999997 565.75,96.75999999999999 603.5,95.79999999999995 641.25,94.52000000000004 679,93.56 716.75,92.60000000000002 754.5,91.63999999999999 792.25,90.36000000000001 830,89.40000000000003" fill="none" stroke="#999" stroke-width="1.8" stroke-dasharray="3 5" />

  <g data-legend="risk-series">
  <line x1="865" y1="55" x2="920" y2="55" stroke="black" stroke-width="2.6" />
  <text x="932" y="60" font-size="14" font-family="Arial">
    - R<tspan baseline-shift="sub" font-size="10">total</tspan>
  </text>

  <line x1="865" y1="80" x2="920" y2="80" stroke="#666" stroke-width="2" stroke-dasharray="8 5" />
  <text x="932" y="85" font-size="14" font-family="Arial">
    - R<tspan baseline-shift="sub" font-size="10">geo</tspan>
  </text>

  <line x1="865" y1="105" x2="920" y2="105" stroke="#999" stroke-width="1.8" stroke-dasharray="3 5" />
  <text x="932" y="110" font-size="14" font-family="Arial">
    - R<tspan baseline-shift="sub" font-size="10">env</tspan>
  </text>
  </g>
</svg>